<svg xmlns="http://www.w3.org/2000/svg" xmlns:xlink="http://www.w3.org/1999/xlink" viewBox="0 0 283.96 274.5"><defs><style>.cls-1{fill:url(#linear-gradient);}.cls-2{fill:#232425;stroke:#000;}.cls-2,.cls-6{stroke-miterlimit:10;}.cls-3{font-size:36px;fill:#d6d6d6;font-family:CenturyGothic, Century Gothic;}.cls-4{letter-spacing:0.1em;}.cls-5{font-size:48px;font-family:CenturyGothic-Bold, Century Gothic;font-weight:700;}.cls-5,.cls-6{fill:#fff;}.cls-6{stroke:#fff;}</style><linearGradient id="linear-gradient" x1="302.73" y1="398.49" x2="479.14" y2="334.29" gradientUnits="userSpaceOnUse"><stop offset="0" stop-color="#5b5b5b"/><stop offset="0.5" stop-color="#3d3d3e"/><stop offset="1" stop-color="#232425"/></linearGradient></defs><g id="Layer_2" data-name="Layer 2"><path class="cls-1" d="M514.61,438.14,515,438,443,235s-2.82-4.68-7.54-5v0c-1.34-3.62-40,7.32-86.39,24.44S266.2,288.38,267.54,292a.79.79,0,0,0,.12.15c-.87.53-2.91,2.7.34,10.84,4,10,73,199,73,199l.24-.09a1.16,1.16,0,0,0-.06.83c1.7,4.58,42-6.07,89.95-23.79s85.51-35.8,83.82-40.38A1,1,0,0,0,514.61,438.14Z" transform="translate(-266.22 -229.3)"/><path class="cls-2" d="M527,242c-18-28-77.17,12.27-77.17,12.27l13.78,38.83h0l-.51-1.44S480,229,519,269s-17.48,131-17.48,131l9,25.49S525,400,542,362,545,270,527,242Z" transform="translate(-266.22 -229.3)"/></g><g id="Layer_3" data-name="Layer 3"><text class="cls-3" transform="matrix(0.94, -0.35, 0.35, 0.94, 28.68, 122.94)"><tspan class="cls-4">Chai<tspan x="0" y="46">Wala</tspan></tspan><tspan class="cls-5"><tspan x="0" y="94">Coder</tspan></tspan></text><path class="cls-6" d="M339.5,450.5l128-48Z" transform="translate(-266.22 -229.3)"/></g></svg>