<svg height="512" viewBox="0 0 64 64" width="512" xmlns="http://www.w3.org/2000/svg" xmlns:xlink="http://www.w3.org/1999/xlink"><linearGradient id="New_Gradient_Swatch_3" gradientUnits="userSpaceOnUse" x1="13" x2="13" y1="65.214" y2="4.374"><stop offset="0" stop-color="#006df0"/><stop offset="1" stop-color="#00e7f0"/></linearGradient><linearGradient id="New_Gradient_Swatch_3-2" x1="17" x2="17" xlink:href="#New_Gradient_Swatch_3" y1="65.214" y2="4.374"/><linearGradient id="New_Gradient_Swatch_3-3" x1="21" x2="21" xlink:href="#New_Gradient_Swatch_3" y1="65.214" y2="4.374"/><linearGradient id="New_Gradient_Swatch_3-4" x1="18" x2="18" xlink:href="#New_Gradient_Swatch_3" y1="65.214" y2="4.374"/><linearGradient id="New_Gradient_Swatch_3-8" x1="34" x2="34" xlink:href="#New_Gradient_Swatch_3" y1="65.214" y2="4.374"/><linearGradient id="New_Gradient_Swatch_3-11" x1="46" x2="46" xlink:href="#New_Gradient_Swatch_3" y1="65.214" y2="4.374"/><linearGradient id="New_Gradient_Swatch_3-14" x1="29" x2="29" xlink:href="#New_Gradient_Swatch_3" y1="65.214" y2="4.374"/><linearGradient id="New_Gradient_Swatch_3-17" x1="32" x2="32" xlink:href="#New_Gradient_Swatch_3" y1="65.214" y2="4.374"/><linearGradient id="New_Gradient_Swatch_3-18" x1="31" x2="31" xlink:href="#New_Gradient_Swatch_3" y1="65.214" y2="4.374"/><linearGradient id="New_Gradient_Swatch_3-20" x1="44.5" x2="44.5" xlink:href="#New_Gradient_Swatch_3" y1="65.214" y2="4.374"/><linearGradient id="New_Gradient_Swatch_3-21" x1="55.5" x2="55.5" xlink:href="#New_Gradient_Swatch_3" y1="65.214" y2="4.374"/><linearGradient id="New_Gradient_Swatch_3-22" x1="50" x2="50" xlink:href="#New_Gradient_Swatch_3" y1="65.214" y2="4.374"/><g id="Design_code" data-name="Design code"><path d="m12 20h2v2h-2z" fill="url(#New_Gradient_Swatch_3)"/><path d="m16 20h2v2h-2z" fill="url(#New_Gradient_Swatch_3-2)"/><path d="m20 20h2v2h-2z" fill="url(#New_Gradient_Swatch_3-3)"/><g fill="url(#New_Gradient_Swatch_3-4)"><path d="m23 34h-10a1 1 0 0 1 -1-1v-8a1 1 0 0 1 1-1h10a1 1 0 0 1 1 1v8a1 1 0 0 1 -1 1zm-9-2h8v-6h-8z"/><path d="m14 36h8v2h-8z"/><path d="m14 40h8v2h-8z"/><path d="m14 44h8v2h-8z"/></g><path d="m32 36h4v2h-4z" fill="url(#New_Gradient_Swatch_3-8)"/><path d="m32 40h4v2h-4z" fill="url(#New_Gradient_Swatch_3-8)"/><path d="m32 44h4v2h-4z" fill="url(#New_Gradient_Swatch_3-8)"/><path d="m42 36h8v2h-8z" fill="url(#New_Gradient_Swatch_3-11)"/><path d="m42 40h8v2h-8z" fill="url(#New_Gradient_Swatch_3-11)"/><path d="m42 44h8v2h-8z" fill="url(#New_Gradient_Swatch_3-11)"/><path d="m28 36h2v2h-2z" fill="url(#New_Gradient_Swatch_3-14)"/><path d="m28 40h2v2h-2z" fill="url(#New_Gradient_Swatch_3-14)"/><path d="m28 44h2v2h-2z" fill="url(#New_Gradient_Swatch_3-14)"/><path d="m61 52h-1v-31a.99.99 0 0 0 -.058-.288 11.993 11.993 0 1 0 -21.761-8.712h-29.181a5.006 5.006 0 0 0 -5 5v35h-1a1 1 0 0 0 -1 1v4a5.006 5.006 0 0 0 5 5h50a5.006 5.006 0 0 0 5-5v-4a1 1 0 0 0 -1-1zm-11-48a10 10 0 1 1 -10 10 10.011 10.011 0 0 1 10-10zm-6.619 20h-2.381a1 1 0 0 0 -1 1v8a1 1 0 0 0 1 1h10a1 1 0 0 0 1-1v-7.181a11.815 11.815 0 0 0 2-.519v22.7h-44v-30h28.7a12.047 12.047 0 0 0 4.681 6zm6.619 2v6h-8v-6zm-44-9a3 3 0 0 1 3-3h29a11.986 11.986 0 0 0 .181 2h-29.181a1 1 0 0 0 -1 1v32a1 1 0 0 0 1 1h46a1 1 0 0 0 1-1v-24.624a12.013 12.013 0 0 0 2-1.457v29.081h-52zm31 37v1a1 1 0 0 1 -1 1h-8a1 1 0 0 1 -1-1v-1zm23 3a3 3 0 0 1 -3 3h-50a3 3 0 0 1 -3-3v-3h21v1a3 3 0 0 0 3 3h8a3 3 0 0 0 3-3v-1h21z" fill="url(#New_Gradient_Swatch_3-17)"/><path d="m24 20h14v2h-14z" fill="url(#New_Gradient_Swatch_3-18)"/><path d="m37 24h-10a1 1 0 0 0 -1 1v8a1 1 0 0 0 1 1h10a1 1 0 0 0 1-1v-8a1 1 0 0 0 -1-1zm-1 8h-8v-6h8z" fill="url(#New_Gradient_Swatch_3-17)"/><path d="m42.293 14.707 3 3a1 1 0 0 0 1.414-1.414l-2.293-2.293 2.293-2.293a1 1 0 0 0 -1.414-1.414l-3 3a1 1 0 0 0 0 1.414z" fill="url(#New_Gradient_Swatch_3-20)"/><path d="m53.293 17.707a1 1 0 0 0 1.414 0l3-3a1 1 0 0 0 0-1.414l-3-3a1 1 0 0 0 -1.414 1.414l2.293 2.293-2.293 2.293a1 1 0 0 0 0 1.414z" fill="url(#New_Gradient_Swatch_3-21)"/><path d="m48.8 19.98a.948.948 0 0 0 .2.02 1 1 0 0 0 .979-.8l2-10a1 1 0 1 0 -1.959-.4l-2 10a1 1 0 0 0 .78 1.18z" fill="url(#New_Gradient_Swatch_3-22)"/></g></svg>