<svg height="512" viewBox="0 0 64 64" width="512" xmlns="http://www.w3.org/2000/svg" xmlns:xlink="http://www.w3.org/1999/xlink"><linearGradient id="New_Gradient_Swatch_3" gradientUnits="userSpaceOnUse" x1="59" x2="59" y1="64.552" y2="1.196"><stop offset="0" stop-color="#006df0"/><stop offset="1" stop-color="#00e7f0"/></linearGradient><linearGradient id="New_Gradient_Swatch_3-2" x1="61" x2="61" xlink:href="#New_Gradient_Swatch_3" y1="64.552" y2="1.196"/><linearGradient id="New_Gradient_Swatch_3-3" x1="32" x2="32" xlink:href="#New_Gradient_Swatch_3" y1="64.552" y2="1.196"/><linearGradient id="New_Gradient_Swatch_3-4" x1="35.5" x2="35.5" xlink:href="#New_Gradient_Swatch_3" y1="64.552" y2="1.196"/><linearGradient id="New_Gradient_Swatch_3-5" x1="28.5" x2="28.5" xlink:href="#New_Gradient_Swatch_3" y1="64.552" y2="1.196"/><linearGradient id="New_Gradient_Swatch_3-7" x1="45.5" x2="45.5" xlink:href="#New_Gradient_Swatch_3" y1="64.552" y2="1.196"/><linearGradient id="New_Gradient_Swatch_3-8" x1="54" x2="54" xlink:href="#New_Gradient_Swatch_3" y1="64.552" y2="1.196"/><linearGradient id="New_Gradient_Swatch_3-9" x1="59.5" x2="59.5" xlink:href="#New_Gradient_Swatch_3" y1="64.552" y2="1.196"/><linearGradient id="New_Gradient_Swatch_3-10" x1="50.5" x2="50.5" xlink:href="#New_Gradient_Swatch_3" y1="64.552" y2="1.196"/><linearGradient id="New_Gradient_Swatch_3-11" x1="55.5" x2="55.5" xlink:href="#New_Gradient_Swatch_3" y1="64.552" y2="1.196"/><linearGradient id="New_Gradient_Swatch_3-12" x1="18.5" x2="18.5" xlink:href="#New_Gradient_Swatch_3" y1="64.552" y2="1.196"/><linearGradient id="New_Gradient_Swatch_3-13" x1="10" x2="10" xlink:href="#New_Gradient_Swatch_3" y1="64.552" y2="1.196"/><linearGradient id="New_Gradient_Swatch_3-14" x1="4.5" x2="4.5" xlink:href="#New_Gradient_Swatch_3" y1="64.552" y2="1.196"/><linearGradient id="New_Gradient_Swatch_3-15" x1="13.5" x2="13.5" xlink:href="#New_Gradient_Swatch_3" y1="64.552" y2="1.196"/><linearGradient id="New_Gradient_Swatch_3-16" x1="5" x2="5" xlink:href="#New_Gradient_Swatch_3" y1="64.552" y2="1.196"/><linearGradient id="New_Gradient_Swatch_3-17" x1="3" x2="3" xlink:href="#New_Gradient_Swatch_3" y1="64.552" y2="1.196"/><linearGradient id="New_Gradient_Swatch_3-18" x1="8.5" x2="8.5" xlink:href="#New_Gradient_Swatch_3" y1="64.552" y2="1.196"/><g id="Email_virus" data-name="Email virus"><path d="m58 7h2v2h-2z" fill="url(#New_Gradient_Swatch_3)"/><path d="m60 13h2v2h-2z" fill="url(#New_Gradient_Swatch_3-2)"/><path d="m33.813 3.12a3.012 3.012 0 0 0 -3.626 0l-27.396 20.78a2 2 0 0 0 -.791 1.6v34.5a2 2 0 0 0 2 2h56a2 2 0 0 0 2-2v-34.5a2 2 0 0 0 -.791-1.594zm-8.739 39.88-21.074 15.986v-31.972zm7.53 2.285a1 1 0 0 1 -1.208 0l-10.169-7.713 2.473-16.463 3.886 3.891h8.828l3.891-3.891 2.468 16.463zm-5.875-1.029 3.458 2.623a3.011 3.011 0 0 0 3.626 0l3.458-2.623 20.756 15.744h-52.054zm12.197-1.256 21.074-15.986v31.972zm-7.526-38.286a1 1 0 0 1 1.208 0l26.737 20.286-14.756 11.194-2.889-19.303-6.114 6.109h-7.172l-6.109-6.109-2.894 19.3-14.756-11.191z" fill="url(#New_Gradient_Swatch_3-3)"/><path d="m34 32a1 1 0 0 0 .316-.051l3-1a1 1 0 0 0 -.632-1.9l-3 1a1 1 0 0 0 .316 1.951z" fill="url(#New_Gradient_Swatch_3-4)"/><path d="m26.684 30.949 3 1a1 1 0 0 0 .632-1.9l-3-1a1 1 0 0 0 -.632 1.9z" fill="url(#New_Gradient_Swatch_3-5)"/><path d="m37 36h-10a1 1 0 0 0 0 2h1v1a1 1 0 0 0 2 0v-1h4v1a1 1 0 0 0 2 0v-1h1a1 1 0 0 0 0-2z" fill="url(#New_Gradient_Swatch_3-3)"/><path d="m40 2h11v2h-11z" fill="url(#New_Gradient_Swatch_3-7)"/><path d="m53 2h2v2h-2z" fill="url(#New_Gradient_Swatch_3-8)"/><path d="m57 2h5v2h-5z" fill="url(#New_Gradient_Swatch_3-9)"/><path d="m45 7h11v2h-11z" fill="url(#New_Gradient_Swatch_3-10)"/><path d="m53 13h5v2h-5z" fill="url(#New_Gradient_Swatch_3-11)"/><path d="m13 2h11v2h-11z" fill="url(#New_Gradient_Swatch_3-12)"/><path d="m9 2h2v2h-2z" fill="url(#New_Gradient_Swatch_3-13)"/><path d="m2 2h5v2h-5z" fill="url(#New_Gradient_Swatch_3-14)"/><path d="m8 7h11v2h-11z" fill="url(#New_Gradient_Swatch_3-15)"/><path d="m4 7h2v2h-2z" fill="url(#New_Gradient_Swatch_3-16)"/><path d="m2 13h2v2h-2z" fill="url(#New_Gradient_Swatch_3-17)"/><path d="m6 13h5v2h-5z" fill="url(#New_Gradient_Swatch_3-18)"/></g></svg>