<?xml version="1.0"?>
<svg xmlns="http://www.w3.org/2000/svg" xmlns:xlink="http://www.w3.org/1999/xlink" viewBox="0 0 64 64" width="512" height="512"><defs><linearGradient id="New_Gradient_Swatch_3" x1="31.662" y1="63.244" x2="32.324" y2="2.093" gradientUnits="userSpaceOnUse"><stop offset="0" stop-color="#006df0"/><stop offset="1" stop-color="#00e7f0"/></linearGradient><linearGradient id="New_Gradient_Swatch_3-2" x1="37.945" y1="63.312" x2="38.607" y2="2.161" xlink:href="#New_Gradient_Swatch_3"/><linearGradient id="New_Gradient_Swatch_3-3" x1="41.913" y1="63.355" x2="42.575" y2="2.204" xlink:href="#New_Gradient_Swatch_3"/><linearGradient id="New_Gradient_Swatch_3-4" x1="49.01" y1="63.432" x2="49.673" y2="2.281" xlink:href="#New_Gradient_Swatch_3"/><linearGradient id="New_Gradient_Swatch_3-5" x1="25.376" y1="63.176" x2="26.038" y2="2.025" xlink:href="#New_Gradient_Swatch_3"/><linearGradient id="New_Gradient_Swatch_3-6" x1="21.42" y1="63.133" x2="22.082" y2="1.982" xlink:href="#New_Gradient_Swatch_3"/><linearGradient id="New_Gradient_Swatch_3-7" x1="14.313" y1="63.056" x2="14.975" y2="1.905" xlink:href="#New_Gradient_Swatch_3"/></defs><g id="Network-3" data-name="Network"><path d="M62,32a4,4,0,0,0-3.307-3.93A26.8,26.8,0,0,0,35.93,5.307a3.989,3.989,0,0,0-7.86,0A26.8,26.8,0,0,0,5.307,28.07a3.989,3.989,0,0,0,0,7.86A26.8,26.8,0,0,0,28.07,58.693a3.989,3.989,0,0,0,7.86,0A26.8,26.8,0,0,0,58.693,35.93,4,4,0,0,0,62,32ZM32,4a2,2,0,1,1-2,2A2,2,0,0,1,32,4ZM4,32a2,2,0,1,1,2,2A2,2,0,0,1,4,32ZM32,60a2,2,0,1,1,2-2A2,2,0,0,1,32,60Zm3.763-3.3a3.974,3.974,0,0,0-7.526,0A25.162,25.162,0,0,1,7.3,35.763a3.974,3.974,0,0,0,0-7.526A25.162,25.162,0,0,1,28.237,7.3a3.974,3.974,0,0,0,7.526,0A25.162,25.162,0,0,1,56.7,28.237a3.974,3.974,0,0,0,0,7.526A25.162,25.162,0,0,1,35.763,56.7ZM58,34a2,2,0,1,1,2-2A2,2,0,0,1,58,34Z" style="fill:url(#New_Gradient_Swatch_3)"/><path d="M36.752,52.457l.451,1.949c.722-.167,1.447-.374,2.155-.613l-.64-1.895C38.071,52.117,37.41,52.305,36.752,52.457Z" style="fill:url(#New_Gradient_Swatch_3-2)"/><path d="M40.589,51.162l.82,1.824a22.725,22.725,0,0,0,2.083-1.068l-1-1.73A20.732,20.732,0,0,1,40.589,51.162Z" style="fill:url(#New_Gradient_Swatch_3-3)"/><path d="M44.061,49.183l1.15,1.634A23,23,0,0,0,54.4,37.238l-1.947-.455A21.025,21.025,0,0,1,44.061,49.183Z" style="fill:url(#New_Gradient_Swatch_3-4)"/><path d="M27.231,11.547,26.78,9.6c-.7.163-1.42.367-2.127.6l.639,1.9C25.937,11.881,26.59,11.7,27.231,11.547Z" style="fill:url(#New_Gradient_Swatch_3-5)"/><path d="M23.423,12.832l-.82-1.824a22.669,22.669,0,0,0-2.088,1.07l1,1.731A20.847,20.847,0,0,1,23.423,12.832Z" style="fill:url(#New_Gradient_Swatch_3-6)"/><path d="M19.939,14.817l-1.15-1.634A22.994,22.994,0,0,0,9.6,26.766l1.947.455A21.015,21.015,0,0,1,19.939,14.817Z" style="fill:url(#New_Gradient_Swatch_3-7)"/><path d="M51,32A19,19,0,1,0,32,51,19.021,19.021,0,0,0,51,32Zm-9.026-1a33.364,33.364,0,0,0-1.165-8.132,23.582,23.582,0,0,0,4.345-1.622A16.919,16.919,0,0,1,48.949,31ZM33,15.155c2.073.579,3.925,2.912,5.2,6.262a32.908,32.908,0,0,1-5.2.557Zm-2,6.819a32.908,32.908,0,0,1-5.2-.557c1.278-3.35,3.13-5.683,5.2-6.262Zm0,2V31H24.025a31.322,31.322,0,0,1,1.144-7.671A34.758,34.758,0,0,0,31,23.973ZM31,33v7.031a34.738,34.738,0,0,0-5.831.641A31.33,31.33,0,0,1,24.025,33Zm0,9.03v6.815c-2.072-.579-3.924-2.91-5.2-6.26A32.892,32.892,0,0,1,31,42.03Zm2,0a32.943,32.943,0,0,1,5.2.555c-1.278,3.35-3.13,5.681-5.2,6.26Zm5.831-1.358A34.772,34.772,0,0,0,33,40.031V33h6.975A31.33,31.33,0,0,1,38.831,40.672ZM33,31V23.973a34.758,34.758,0,0,0,5.831-.644A31.322,31.322,0,0,1,39.975,31Zm7.183-10.031a17.045,17.045,0,0,0-2.844-5.1,17.011,17.011,0,0,1,6.39,3.854A22.376,22.376,0,0,1,40.183,20.969Zm-16.366,0a22.376,22.376,0,0,1-3.546-1.244,17.011,17.011,0,0,1,6.39-3.854A17.045,17.045,0,0,0,23.817,20.969Zm-.626,1.9A33.364,33.364,0,0,0,22.026,31H15.051a16.919,16.919,0,0,1,3.8-9.754A23.582,23.582,0,0,0,23.191,22.868ZM22.026,33a33.348,33.348,0,0,0,1.165,8.13,23.306,23.306,0,0,0-4.345,1.622A16.9,16.9,0,0,1,15.051,33Zm1.792,10.032a17.06,17.06,0,0,0,2.843,5.1,17,17,0,0,1-6.392-3.856A22.383,22.383,0,0,1,23.818,43.032Zm16.364,0a22.22,22.22,0,0,1,3.549,1.242,17.013,17.013,0,0,1-6.392,3.855A17.06,17.06,0,0,0,40.182,43.032Zm.627-1.9A33.348,33.348,0,0,0,41.974,33h6.975a16.9,16.9,0,0,1-3.795,9.752A23.316,23.316,0,0,0,40.809,41.13Z" style="fill:url(#New_Gradient_Swatch_3)"/></g></svg>
